# xmcd
#
# Track frame offsets:
#	150
#	12497
#	26977
#	39467
#	55430
#	69922
#	84705
#	104347
#	119812
#	136707
#
# Disc length: 2044 seconds
#
# Revision: 0
# Processed by: cddbd v1.5.1PL2 Copyright (c) Steve Scherf et al.
# Submitted via: audiograbber 1.83.01
#
DISCID=8c07fa0a
DTITLE=вяистима  жаялайг  - мувтес ап╪ йяустакко 
DYEAR=1994
DGENRE=еккажяо каийа
TTITLE0=пес лоу ти ма соу жтаиы
TTITLE1=йахе мувта дийиа лас
TTITLE2=лацелема жикиа
TTITLE3=асе тг мувта
TTITLE4=мувтес апо йяустакко
TTITLE5=есу
TTITLE6=лацеутгйа
TTITLE7=лиа цумаийа ломг
TTITLE8=йаядиа йоллатиа
TTITLE9=пеяилемы
EXTD=
EXTT0=
EXTT1=
EXTT2=
EXTT3=
EXTT4=
EXTT5=
EXTT6=
EXTT7=
EXTT8=
EXTT9=
PLAYORDER=
